<?xml version="1.0" encoding="utf-8"?>
<!-- Generator: Adobe Illustrator 24.2.1, SVG Export Plug-In . SVG Version: 6.00 Build 0)  -->
<svg version="1.1" id="Layer_1" xmlns="http://www.w3.org/2000/svg" xmlns:xlink="http://www.w3.org/1999/xlink" x="0px" y="0px"
	 viewBox="0 0 24 24" style="enable-background:new 0 0 24 24;" xml:space="preserve">
<style type="text/css">
	.st0{fill:#2B2B2B;}
</style>
<g>
	<path class="st0" d="M2,11.8L0.7,7.7h1.1l0.8,2.7l0.7-2.7h1.1L5,10.4l0.8-2.7h1.1l-1.3,4.1H4.5L3.8,9.2l-0.7,2.7H2z"/>
	<path class="st0" d="M8.2,11.8L6.9,7.7H8l0.8,2.7l0.7-2.7h1.1l0.7,2.7L12,7.7h1.1l-1.3,4.1h-1.1L10,9.2l-0.7,2.7H8.2z"/>
	<path class="st0" d="M14.5,11.8l-1.3-4.1h1.1l0.8,2.7l0.7-2.7h1.1l0.7,2.7l0.8-2.7h1.1L18,11.8H17l-0.7-2.7l-0.7,2.7H14.5z"/>
</g>
<g>
	<path class="st0" d="M22.4,20.8l-5-5c-0.1-0.1-0.2-0.2-0.3-0.2h-0.6c0.8-0.9,1.3-1.9,1.7-2.9H16c-0.3,0.7-0.8,1.3-1.4,1.9
		c-1.3,1.3-2.9,1.9-4.7,1.9S6.6,16,5.3,14.7c-0.6-0.6-1-1.2-1.4-1.9H1.8c0.4,1.2,1.1,2.3,2.1,3.3c1.7,1.7,3.7,2.5,6.1,2.5
		c2.1,0,4-0.7,5.6-2.1v0.6c0,0.1,0.1,0.2,0.2,0.3l5,5c0.2,0.2,0.5,0.2,0.7,0l0.9-0.9C22.7,21.3,22.7,21,22.4,20.8z"/>
	<path class="st0" d="M5.3,5.3C6.6,4,8.2,3.4,10,3.4s3.4,0.6,4.7,1.9c0.4,0.4,0.7,0.8,1,1.2h2.3c-0.4-0.9-1-1.8-1.8-2.6
		c-1.7-1.7-3.7-2.5-6.1-2.5c-2.4,0-4.4,0.8-6.1,2.5C3.1,4.7,2.5,5.6,2.1,6.5h2.3C4.6,6.1,5,5.7,5.3,5.3z"/>
</g>
</svg>
